<svg xmlns="http://www.w3.org/2000/svg" viewBox="0 0 400 250" width="400" height="250"><rect width="400" height="250" fill="#061730"/><defs><radialGradient id="vig" cx="50%" cy="50%" r="68%"><stop offset="0%" stop-color="transparent"/><stop offset="100%" stop-color="#061730" stop-opacity="0.6"/></radialGradient><pattern id="p" x="0" y="0" width="100" height="80" patternUnits="userSpaceOnUse"><line x1="63.9" y1="2.0" x2="71.5" y2="-0.4" stroke="rgba(220,38,38,0.47)" stroke-width="1.4" stroke-linecap="round"/><line x1="89.2" y1="7.0" x2="94.6" y2="6.4" stroke="rgba(220,38,38,0.27)" stroke-width="1.3" stroke-linecap="round"/><line x1="2.7" y1="15.9" x2="14.5" y2="18.4" stroke="rgba(220,38,38,0.27)" stroke-width="1.3" stroke-linecap="round"/><line x1="80.9" y1="0.5" x2="93.8" y2="6.3" stroke="rgba(220,38,38,0.32)" stroke-width="0.9" stroke-linecap="round"/><line x1="95.7" y1="26.9" x2="101.0" y2="23.6" stroke="rgba(220,38,38,0.52)" stroke-width="1.4" stroke-linecap="round"/><line x1="80.7" y1="58.4" x2="98.3" y2="59.3" stroke="rgba(220,38,38,0.33)" stroke-width="1.3" stroke-linecap="round"/><line x1="82.9" y1="49.5" x2="93.9" y2="55.5" stroke="rgba(220,38,38,0.46)" stroke-width="0.8" stroke-linecap="round"/><line x1="22.8" y1="23.2" x2="29.5" y2="18.7" stroke="rgba(220,38,38,0.22)" stroke-width="1.0" stroke-linecap="round"/><line x1="63.6" y1="29.2" x2="71.2" y2="27.8" stroke="rgba(220,38,38,0.29)" stroke-width="1.7" stroke-linecap="round"/><line x1="64.8" y1="48.7" x2="77.8" y2="42.3" stroke="rgba(220,38,38,0.25)" stroke-width="1.1" stroke-linecap="round"/><line x1="99.0" y1="51.2" x2="112.8" y2="52.3" stroke="rgba(220,38,38,0.52)" stroke-width="1.6" stroke-linecap="round"/><line x1="22.9" y1="2.6" x2="31.1" y2="0.4" stroke="rgba(220,38,38,0.26)" stroke-width="1.7" stroke-linecap="round"/><line x1="87.6" y1="25.2" x2="97.5" y2="27.4" stroke="rgba(220,38,38,0.55)" stroke-width="1.2" stroke-linecap="round"/><line x1="26.5" y1="19.7" x2="34.9" y2="20.5" stroke="rgba(220,38,38,0.41)" stroke-width="1.7" stroke-linecap="round"/><line x1="39.9" y1="17.5" x2="48.9" y2="25.0" stroke="rgba(220,38,38,0.22)" stroke-width="0.8" stroke-linecap="round"/><line x1="11.0" y1="50.2" x2="20.6" y2="54.4" stroke="rgba(220,38,38,0.21)" stroke-width="1.1" stroke-linecap="round"/><line x1="99.6" y1="42.3" x2="112.4" y2="52.2" stroke="rgba(220,38,38,0.18)" stroke-width="1.5" stroke-linecap="round"/><line x1="68.2" y1="43.0" x2="80.8" y2="38.7" stroke="rgba(220,38,38,0.22)" stroke-width="1.2" stroke-linecap="round"/><line x1="45.4" y1="76.3" x2="52.7" y2="80.5" stroke="rgba(220,38,38,0.38)" stroke-width="0.9" stroke-linecap="round"/><line x1="91.3" y1="69.6" x2="104.0" y2="65.9" stroke="rgba(220,38,38,0.42)" stroke-width="0.9" stroke-linecap="round"/><line x1="76.3" y1="43.2" x2="87.3" y2="47.7" stroke="rgba(220,38,38,0.18)" stroke-width="1.1" stroke-linecap="round"/><line x1="1.9" y1="74.3" x2="15.6" y2="82.3" stroke="rgba(220,38,38,0.30)" stroke-width="0.8" stroke-linecap="round"/><line x1="87.8" y1="75.8" x2="97.3" y2="69.6" stroke="rgba(220,38,38,0.21)" stroke-width="1.5" stroke-linecap="round"/><line x1="76.6" y1="10.3" x2="88.7" y2="9.9" stroke="rgba(220,38,38,0.29)" stroke-width="1.7" stroke-linecap="round"/><line x1="42.3" y1="16.9" x2="56.8" y2="17.7" stroke="rgba(220,38,38,0.26)" stroke-width="1.0" stroke-linecap="round"/><line x1="99.5" y1="52.0" x2="111.2" y2="51.0" stroke="rgba(220,38,38,0.23)" stroke-width="0.9" stroke-linecap="round"/><line x1="33.8" y1="47.1" x2="41.1" y2="44.2" stroke="rgba(220,38,38,0.21)" stroke-width="1.4" stroke-linecap="round"/><line x1="22.9" y1="72.4" x2="28.1" y2="75.3" stroke="rgba(220,38,38,0.28)" stroke-width="1.4" stroke-linecap="round"/><line x1="21.4" y1="10.6" x2="31.6" y2="17.7" stroke="rgba(220,38,38,0.37)" stroke-width="1.6" stroke-linecap="round"/><line x1="80.7" y1="15.2" x2="89.7" y2="9.6" stroke="rgba(220,38,38,0.35)" stroke-width="1.2" stroke-linecap="round"/><line x1="72.9" y1="53.9" x2="77.8" y2="57.8" stroke="rgba(220,38,38,0.34)" stroke-width="1.1" stroke-linecap="round"/><line x1="86.2" y1="19.9" x2="96.0" y2="15.4" stroke="rgba(220,38,38,0.35)" stroke-width="1.0" stroke-linecap="round"/><line x1="25.0" y1="73.9" x2="41.1" y2="72.6" stroke="rgba(220,38,38,0.40)" stroke-width="0.8" stroke-linecap="round"/><line x1="99.9" y1="66.9" x2="113.4" y2="77.3" stroke="rgba(220,38,38,0.52)" stroke-width="0.9" stroke-linecap="round"/><line x1="48.6" y1="17.1" x2="54.3" y2="16.3" stroke="rgba(220,38,38,0.33)" stroke-width="1.8" stroke-linecap="round"/><line x1="26.5" y1="62.7" x2="37.0" y2="62.1" stroke="rgba(220,38,38,0.56)" stroke-width="1.8" stroke-linecap="round"/><line x1="55.6" y1="57.5" x2="63.4" y2="53.4" stroke="rgba(220,38,38,0.57)" stroke-width="1.3" stroke-linecap="round"/><line x1="54.2" y1="59.8" x2="64.5" y2="52.5" stroke="rgba(220,38,38,0.38)" stroke-width="1.6" stroke-linecap="round"/><line x1="15.7" y1="76.9" x2="21.9" y2="72.8" stroke="rgba(220,38,38,0.42)" stroke-width="1.4" stroke-linecap="round"/><line x1="23.5" y1="9.6" x2="30.5" y2="13.8" stroke="rgba(220,38,38,0.42)" stroke-width="1.4" stroke-linecap="round"/><line x1="41.9" y1="46.7" x2="59.1" y2="47.2" stroke="rgba(220,38,38,0.26)" stroke-width="1.5" stroke-linecap="round"/><line x1="23.9" y1="31.7" x2="32.5" y2="33.8" stroke="rgba(220,38,38,0.31)" stroke-width="1.5" stroke-linecap="round"/><line x1="7.3" y1="36.7" x2="21.0" y2="48.2" stroke="rgba(220,38,38,0.21)" stroke-width="0.9" stroke-linecap="round"/><line x1="26.5" y1="74.7" x2="40.7" y2="83.0" stroke="rgba(220,38,38,0.33)" stroke-width="0.9" stroke-linecap="round"/><line x1="83.4" y1="56.3" x2="101.0" y2="59.1" stroke="rgba(220,38,38,0.44)" stroke-width="0.7" stroke-linecap="round"/><line x1="81.7" y1="24.0" x2="98.5" y2="27.8" stroke="rgba(220,38,38,0.23)" stroke-width="0.8" stroke-linecap="round"/><line x1="10.7" y1="44.3" x2="22.9" y2="40.2" stroke="rgba(220,38,38,0.47)" stroke-width="0.9" stroke-linecap="round"/><line x1="63.4" y1="21.1" x2="80.2" y2="20.9" stroke="rgba(220,38,38,0.52)" stroke-width="0.8" stroke-linecap="round"/><line x1="42.4" y1="22.1" x2="53.9" y2="12.5" stroke="rgba(220,38,38,0.43)" stroke-width="1.0" stroke-linecap="round"/><line x1="74.1" y1="44.1" x2="79.2" y2="43.6" stroke="rgba(220,38,38,0.21)" stroke-width="1.7" stroke-linecap="round"/><line x1="90.4" y1="43.6" x2="101.6" y2="49.3" stroke="rgba(220,38,38,0.24)" stroke-width="0.8" stroke-linecap="round"/><line x1="30.8" y1="71.9" x2="45.7" y2="78.4" stroke="rgba(220,38,38,0.54)" stroke-width="0.9" stroke-linecap="round"/><line x1="25.0" y1="8.2" x2="40.2" y2="14.5" stroke="rgba(220,38,38,0.34)" stroke-width="1.4" stroke-linecap="round"/><line x1="15.5" y1="74.4" x2="30.9" y2="83.0" stroke="rgba(220,38,38,0.50)" stroke-width="1.7" stroke-linecap="round"/><line x1="2.5" y1="58.9" x2="19.1" y2="55.0" stroke="rgba(220,38,38,0.50)" stroke-width="1.7" stroke-linecap="round"/><line x1="81.1" y1="21.3" x2="87.0" y2="23.8" stroke="rgba(220,38,38,0.53)" stroke-width="1.6" stroke-linecap="round"/><line x1="22.2" y1="65.3" x2="31.2" y2="64.8" stroke="rgba(220,38,38,0.50)" stroke-width="1.0" stroke-linecap="round"/><line x1="2.4" y1="15.5" x2="18.1" y2="11.6" stroke="rgba(220,38,38,0.57)" stroke-width="1.0" stroke-linecap="round"/><line x1="64.1" y1="32.0" x2="73.5" y2="39.4" stroke="rgba(220,38,38,0.56)" stroke-width="0.8" stroke-linecap="round"/><line x1="97.0" y1="14.3" x2="103.8" y2="19.4" stroke="rgba(220,38,38,0.22)" stroke-width="1.2" stroke-linecap="round"/><line x1="72.9" y1="25.1" x2="84.4" y2="26.8" stroke="rgba(220,38,38,0.33)" stroke-width="1.3" stroke-linecap="round"/><line x1="25.5" y1="56.7" x2="38.5" y2="45.8" stroke="rgba(220,38,38,0.40)" stroke-width="1.5" stroke-linecap="round"/><line x1="74.2" y1="53.7" x2="80.0" y2="52.5" stroke="rgba(220,38,38,0.45)" stroke-width="1.1" stroke-linecap="round"/><line x1="31.4" y1="67.8" x2="39.9" y2="70.5" stroke="rgba(220,38,38,0.30)" stroke-width="1.1" stroke-linecap="round"/><line x1="40.2" y1="23.7" x2="49.3" y2="18.4" stroke="rgba(220,38,38,0.56)" stroke-width="1.4" stroke-linecap="round"/><line x1="90.3" y1="49.2" x2="101.9" y2="45.9" stroke="rgba(220,38,38,0.18)" stroke-width="1.0" stroke-linecap="round"/><line x1="43.0" y1="46.4" x2="53.8" y2="48.8" stroke="rgba(220,38,38,0.36)" stroke-width="0.9" stroke-linecap="round"/><line x1="47.3" y1="72.1" x2="53.9" y2="75.0" stroke="rgba(220,38,38,0.21)" stroke-width="1.3" stroke-linecap="round"/><line x1="63.3" y1="26.8" x2="76.6" y2="33.2" stroke="rgba(220,38,38,0.45)" stroke-width="0.9" stroke-linecap="round"/><line x1="19.9" y1="2.0" x2="30.4" y2="-1.9" stroke="rgba(220,38,38,0.52)" stroke-width="0.8" stroke-linecap="round"/><line x1="41.4" y1="50.4" x2="54.2" y2="44.6" stroke="rgba(220,38,38,0.38)" stroke-width="1.0" stroke-linecap="round"/><line x1="65.6" y1="0.4" x2="79.7" y2="5.6" stroke="rgba(220,38,38,0.22)" stroke-width="1.2" stroke-linecap="round"/><line x1="17.6" y1="76.6" x2="23.2" y2="76.8" stroke="rgba(220,38,38,0.28)" stroke-width="1.6" stroke-linecap="round"/><line x1="45.6" y1="64.1" x2="63.0" y2="68.3" stroke="rgba(220,38,38,0.42)" stroke-width="1.7" stroke-linecap="round"/><line x1="89.1" y1="49.0" x2="100.2" y2="52.5" stroke="rgba(220,38,38,0.51)" stroke-width="1.3" stroke-linecap="round"/><line x1="89.7" y1="59.5" x2="98.1" y2="59.2" stroke="rgba(220,38,38,0.28)" stroke-width="1.4" stroke-linecap="round"/><line x1="76.6" y1="41.7" x2="85.0" y2="43.2" stroke="rgba(220,38,38,0.21)" stroke-width="1.0" stroke-linecap="round"/><line x1="27.2" y1="25.6" x2="34.0" y2="26.0" stroke="rgba(220,38,38,0.27)" stroke-width="1.5" stroke-linecap="round"/><line x1="70.6" y1="5.1" x2="82.6" y2="3.6" stroke="rgba(220,38,38,0.35)" stroke-width="0.9" stroke-linecap="round"/><line x1="42.0" y1="72.4" x2="56.0" y2="74.0" stroke="rgba(220,38,38,0.52)" stroke-width="1.5" stroke-linecap="round"/><line x1="38.0" y1="0.5" x2="52.5" y2="-2.6" stroke="rgba(220,38,38,0.52)" stroke-width="1.7" stroke-linecap="round"/><line x1="41.9" y1="59.8" x2="54.7" y2="60.6" stroke="rgba(220,38,38,0.27)" stroke-width="0.9" stroke-linecap="round"/><line x1="43.6" y1="2.3" x2="57.1" y2="-0.8" stroke="rgba(220,38,38,0.34)" stroke-width="0.9" stroke-linecap="round"/><line x1="46.7" y1="10.2" x2="52.0" y2="11.1" stroke="rgba(220,38,38,0.34)" stroke-width="1.3" stroke-linecap="round"/><line x1="2.7" y1="51.4" x2="12.3" y2="46.1" stroke="rgba(220,38,38,0.20)" stroke-width="1.1" stroke-linecap="round"/><line x1="21.2" y1="26.1" x2="30.4" y2="29.7" stroke="rgba(220,38,38,0.48)" stroke-width="1.6" stroke-linecap="round"/><line x1="25.2" y1="6.6" x2="34.6" y2="-0.9" stroke="rgba(220,38,38,0.58)" stroke-width="1.1" stroke-linecap="round"/><line x1="65.0" y1="62.5" x2="79.5" y2="65.6" stroke="rgba(220,38,38,0.56)" stroke-width="0.9" stroke-linecap="round"/><line x1="2.0" y1="12.2" x2="13.9" y2="5.4" stroke="rgba(220,38,38,0.41)" stroke-width="0.9" stroke-linecap="round"/><line x1="69.9" y1="61.4" x2="81.5" y2="55.6" stroke="rgba(220,38,38,0.48)" stroke-width="0.8" stroke-linecap="round"/><line x1="81.9" y1="77.2" x2="86.5" y2="74.4" stroke="rgba(220,38,38,0.30)" stroke-width="1.4" stroke-linecap="round"/><line x1="95.8" y1="31.7" x2="101.5" y2="33.5" stroke="rgba(220,38,38,0.46)" stroke-width="1.4" stroke-linecap="round"/><line x1="10.2" y1="61.8" x2="21.5" y2="67.8" stroke="rgba(220,38,38,0.23)" stroke-width="1.8" stroke-linecap="round"/><line x1="78.3" y1="27.8" x2="88.0" y2="26.8" stroke="rgba(220,38,38,0.38)" stroke-width="1.1" stroke-linecap="round"/><line x1="85.0" y1="65.8" x2="99.9" y2="56.6" stroke="rgba(220,38,38,0.43)" stroke-width="1.6" stroke-linecap="round"/><line x1="70.7" y1="34.8" x2="87.4" y2="40.5" stroke="rgba(220,38,38,0.29)" stroke-width="1.6" stroke-linecap="round"/><line x1="53.8" y1="38.7" x2="68.3" y2="37.4" stroke="rgba(220,38,38,0.29)" stroke-width="1.6" stroke-linecap="round"/><line x1="83.1" y1="6.9" x2="90.1" y2="11.1" stroke="rgba(220,38,38,0.37)" stroke-width="1.4" stroke-linecap="round"/><line x1="37.9" y1="2.3" x2="44.4" y2="5.8" stroke="rgba(220,38,38,0.26)" stroke-width="1.6" stroke-linecap="round"/><line x1="34.0" y1="70.4" x2="42.3" y2="72.8" stroke="rgba(220,38,38,0.18)" stroke-width="1.7" stroke-linecap="round"/><line x1="8.6" y1="57.6" x2="23.4" y2="57.4" stroke="rgba(220,38,38,0.46)" stroke-width="1.4" stroke-linecap="round"/><line x1="49.1" y1="63.4" x2="55.7" y2="59.2" stroke="rgba(220,38,38,0.46)" stroke-width="1.0" stroke-linecap="round"/><line x1="58.2" y1="37.9" x2="68.7" y2="38.3" stroke="rgba(220,38,38,0.48)" stroke-width="1.1" stroke-linecap="round"/><line x1="70.3" y1="21.7" x2="76.5" y2="19.4" stroke="rgba(220,38,38,0.26)" stroke-width="0.8" stroke-linecap="round"/><line x1="53.6" y1="61.0" x2="60.7" y2="57.7" stroke="rgba(220,38,38,0.37)" stroke-width="1.5" stroke-linecap="round"/><line x1="97.7" y1="42.0" x2="103.7" y2="40.1" stroke="rgba(220,38,38,0.26)" stroke-width="1.0" stroke-linecap="round"/><line x1="17.9" y1="1.1" x2="26.5" y2="1.5" stroke="rgba(220,38,38,0.57)" stroke-width="1.3" stroke-linecap="round"/><line x1="69.7" y1="10.1" x2="79.6" y2="15.7" stroke="rgba(220,38,38,0.53)" stroke-width="1.3" stroke-linecap="round"/><line x1="46.9" y1="35.2" x2="52.1" y2="32.8" stroke="rgba(220,38,38,0.56)" stroke-width="1.2" stroke-linecap="round"/><line x1="82.2" y1="32.1" x2="93.1" y2="24.7" stroke="rgba(220,38,38,0.20)" stroke-width="0.9" stroke-linecap="round"/><line x1="56.3" y1="24.3" x2="61.3" y2="28.5" stroke="rgba(220,38,38,0.49)" stroke-width="1.4" stroke-linecap="round"/><line x1="79.1" y1="18.1" x2="89.9" y2="18.4" stroke="rgba(220,38,38,0.36)" stroke-width="1.6" stroke-linecap="round"/><line x1="99.0" y1="24.4" x2="111.7" y2="26.6" stroke="rgba(220,38,38,0.48)" stroke-width="1.7" stroke-linecap="round"/><line x1="20.8" y1="16.9" x2="27.6" y2="18.4" stroke="rgba(220,38,38,0.25)" stroke-width="0.8" stroke-linecap="round"/><line x1="0.3" y1="36.0" x2="9.0" y2="37.2" stroke="rgba(220,38,38,0.27)" stroke-width="1.5" stroke-linecap="round"/><line x1="70.3" y1="36.3" x2="86.7" y2="40.7" stroke="rgba(220,38,38,0.50)" stroke-width="1.4" stroke-linecap="round"/><line x1="66.1" y1="74.7" x2="78.1" y2="73.4" stroke="rgba(220,38,38,0.44)" stroke-width="1.7" stroke-linecap="round"/><line x1="82.7" y1="5.7" x2="90.7" y2="1.7" stroke="rgba(220,38,38,0.48)" stroke-width="1.3" stroke-linecap="round"/><line x1="28.9" y1="9.9" x2="42.5" y2="13.6" stroke="rgba(220,38,38,0.56)" stroke-width="1.3" stroke-linecap="round"/><line x1="49.4" y1="6.4" x2="57.9" y2="0.1" stroke="rgba(220,38,38,0.31)" stroke-width="1.0" stroke-linecap="round"/><line x1="9.1" y1="77.0" x2="20.3" y2="82.6" stroke="rgba(220,38,38,0.56)" stroke-width="1.8" stroke-linecap="round"/><line x1="67.2" y1="21.6" x2="79.1" y2="12.7" stroke="rgba(220,38,38,0.37)" stroke-width="1.4" stroke-linecap="round"/><line x1="91.6" y1="14.5" x2="104.8" y2="16.1" stroke="rgba(220,38,38,0.38)" stroke-width="0.8" stroke-linecap="round"/><line x1="34.8" y1="26.7" x2="50.5" y2="30.5" stroke="rgba(220,38,38,0.31)" stroke-width="1.5" stroke-linecap="round"/><line x1="28.8" y1="75.6" x2="39.8" y2="80.8" stroke="rgba(220,38,38,0.36)" stroke-width="1.0" stroke-linecap="round"/><line x1="32.3" y1="77.6" x2="43.9" y2="76.1" stroke="rgba(220,38,38,0.58)" stroke-width="1.4" stroke-linecap="round"/><line x1="54.3" y1="33.1" x2="63.1" y2="29.0" stroke="rgba(220,38,38,0.48)" stroke-width="1.4" stroke-linecap="round"/><line x1="76.0" y1="16.3" x2="93.0" y2="17.5" stroke="rgba(220,38,38,0.36)" stroke-width="1.5" stroke-linecap="round"/><line x1="12.1" y1="77.9" x2="20.2" y2="79.1" stroke="rgba(220,38,38,0.24)" stroke-width="1.3" stroke-linecap="round"/><line x1="55.2" y1="7.5" x2="68.3" y2="18.2" stroke="rgba(220,38,38,0.36)" stroke-width="0.8" stroke-linecap="round"/><line x1="83.2" y1="39.9" x2="94.3" y2="43.3" stroke="rgba(220,38,38,0.29)" stroke-width="1.6" stroke-linecap="round"/><line x1="98.0" y1="19.5" x2="108.0" y2="20.2" stroke="rgba(220,38,38,0.55)" stroke-width="1.3" stroke-linecap="round"/><line x1="87.9" y1="69.1" x2="102.5" y2="64.4" stroke="rgba(220,38,38,0.35)" stroke-width="1.7" stroke-linecap="round"/><line x1="50.8" y1="65.6" x2="59.2" y2="63.0" stroke="rgba(220,38,38,0.41)" stroke-width="1.8" stroke-linecap="round"/><line x1="49.0" y1="11.9" x2="58.4" y2="12.4" stroke="rgba(220,38,38,0.40)" stroke-width="1.3" stroke-linecap="round"/><line x1="45.5" y1="25.7" x2="58.3" y2="19.8" stroke="rgba(220,38,38,0.41)" stroke-width="1.0" stroke-linecap="round"/><line x1="77.6" y1="3.5" x2="90.9" y2="8.2" stroke="rgba(220,38,38,0.50)" stroke-width="1.1" stroke-linecap="round"/><line x1="66.4" y1="65.7" x2="75.3" y2="72.8" stroke="rgba(220,38,38,0.19)" stroke-width="1.3" stroke-linecap="round"/><line x1="59.0" y1="69.6" x2="68.3" y2="74.9" stroke="rgba(220,38,38,0.39)" stroke-width="1.2" stroke-linecap="round"/><line x1="72.2" y1="32.8" x2="79.1" y2="34.3" stroke="rgba(220,38,38,0.37)" stroke-width="1.8" stroke-linecap="round"/><line x1="33.9" y1="55.4" x2="49.6" y2="58.8" stroke="rgba(220,38,38,0.52)" stroke-width="1.6" stroke-linecap="round"/><line x1="38.0" y1="25.3" x2="52.2" y2="29.8" stroke="rgba(220,38,38,0.53)" stroke-width="0.7" stroke-linecap="round"/><line x1="6.8" y1="50.5" x2="21.8" y2="60.5" stroke="rgba(220,38,38,0.48)" stroke-width="1.2" stroke-linecap="round"/><line x1="9.8" y1="50.7" x2="19.2" y2="56.1" stroke="rgba(220,38,38,0.46)" stroke-width="1.7" stroke-linecap="round"/><line x1="4.6" y1="63.7" x2="14.1" y2="60.9" stroke="rgba(220,38,38,0.24)" stroke-width="1.3" stroke-linecap="round"/><line x1="56.6" y1="63.4" x2="62.0" y2="60.7" stroke="rgba(220,38,38,0.53)" stroke-width="1.4" stroke-linecap="round"/><line x1="24.1" y1="73.0" x2="33.7" y2="67.8" stroke="rgba(220,38,38,0.28)" stroke-width="1.0" stroke-linecap="round"/><line x1="0.9" y1="64.4" x2="12.6" y2="71.7" stroke="rgba(220,38,38,0.24)" stroke-width="1.2" stroke-linecap="round"/><line x1="34.6" y1="47.0" x2="44.9" y2="49.0" stroke="rgba(220,38,38,0.28)" stroke-width="1.6" stroke-linecap="round"/><line x1="19.9" y1="30.8" x2="28.0" y2="30.6" stroke="rgba(220,38,38,0.41)" stroke-width="1.3" stroke-linecap="round"/><line x1="99.3" y1="23.6" x2="109.9" y2="32.0" stroke="rgba(220,38,38,0.29)" stroke-width="1.3" stroke-linecap="round"/><line x1="68.6" y1="59.6" x2="79.0" y2="52.0" stroke="rgba(220,38,38,0.38)" stroke-width="1.7" stroke-linecap="round"/><line x1="28.6" y1="63.9" x2="38.1" y2="65.3" stroke="rgba(220,38,38,0.43)" stroke-width="1.4" stroke-linecap="round"/><line x1="67.8" y1="57.7" x2="83.3" y2="61.2" stroke="rgba(220,38,38,0.43)" stroke-width="1.7" stroke-linecap="round"/><line x1="64.6" y1="24.7" x2="77.1" y2="23.7" stroke="rgba(220,38,38,0.47)" stroke-width="0.8" stroke-linecap="round"/><line x1="29.5" y1="59.8" x2="35.6" y2="56.9" stroke="rgba(220,38,38,0.40)" stroke-width="1.8" stroke-linecap="round"/><line x1="53.1" y1="73.1" x2="60.6" y2="76.8" stroke="rgba(220,38,38,0.51)" stroke-width="1.2" stroke-linecap="round"/><line x1="80.6" y1="59.7" x2="87.0" y2="58.3" stroke="rgba(220,38,38,0.57)" stroke-width="0.9" stroke-linecap="round"/><line x1="96.7" y1="68.8" x2="113.5" y2="74.3" stroke="rgba(220,38,38,0.57)" stroke-width="1.6" stroke-linecap="round"/><line x1="36.6" y1="63.3" x2="45.9" y2="55.7" stroke="rgba(220,38,38,0.36)" stroke-width="1.4" stroke-linecap="round"/><line x1="67.2" y1="46.8" x2="82.7" y2="54.3" stroke="rgba(220,38,38,0.22)" stroke-width="1.0" stroke-linecap="round"/><line x1="2.5" y1="70.7" x2="19.3" y2="72.2" stroke="rgba(220,38,38,0.27)" stroke-width="0.8" stroke-linecap="round"/><line x1="82.4" y1="72.8" x2="92.3" y2="69.9" stroke="rgba(220,38,38,0.24)" stroke-width="1.7" stroke-linecap="round"/><line x1="30.4" y1="39.4" x2="44.4" y2="30.6" stroke="rgba(220,38,38,0.23)" stroke-width="1.2" stroke-linecap="round"/><line x1="67.0" y1="59.5" x2="75.5" y2="65.5" stroke="rgba(220,38,38,0.48)" stroke-width="0.9" stroke-linecap="round"/><line x1="41.5" y1="7.9" x2="51.8" y2="7.8" stroke="rgba(220,38,38,0.56)" stroke-width="0.7" stroke-linecap="round"/><line x1="37.1" y1="35.5" x2="50.1" y2="45.0" stroke="rgba(220,38,38,0.22)" stroke-width="1.5" stroke-linecap="round"/><line x1="54.4" y1="78.2" x2="64.4" y2="76.2" stroke="rgba(220,38,38,0.26)" stroke-width="0.8" stroke-linecap="round"/><line x1="84.8" y1="36.4" x2="97.8" y2="39.4" stroke="rgba(220,38,38,0.42)" stroke-width="0.7" stroke-linecap="round"/><line x1="78.7" y1="19.5" x2="89.4" y2="13.3" stroke="rgba(220,38,38,0.21)" stroke-width="1.5" stroke-linecap="round"/><line x1="20.7" y1="17.3" x2="28.8" y2="21.9" stroke="rgba(220,38,38,0.24)" stroke-width="1.7" stroke-linecap="round"/><line x1="0.3" y1="68.7" x2="6.2" y2="65.5" stroke="rgba(220,38,38,0.28)" stroke-width="0.9" stroke-linecap="round"/><line x1="66.1" y1="2.1" x2="78.0" y2="-7.5" stroke="rgba(220,38,38,0.28)" stroke-width="1.1" stroke-linecap="round"/><line x1="17.4" y1="4.2" x2="28.6" y2="8.1" stroke="rgba(220,38,38,0.48)" stroke-width="1.2" stroke-linecap="round"/><line x1="77.8" y1="41.1" x2="87.7" y2="35.1" stroke="rgba(220,38,38,0.56)" stroke-width="0.7" stroke-linecap="round"/><line x1="78.3" y1="69.4" x2="89.3" y2="69.7" stroke="rgba(220,38,38,0.57)" stroke-width="0.8" stroke-linecap="round"/><line x1="47.9" y1="32.1" x2="58.9" y2="35.1" stroke="rgba(220,38,38,0.54)" stroke-width="0.8" stroke-linecap="round"/><line x1="8.1" y1="48.7" x2="15.1" y2="43.8" stroke="rgba(220,38,38,0.43)" stroke-width="1.3" stroke-linecap="round"/><line x1="32.5" y1="79.6" x2="43.4" y2="80.0" stroke="rgba(220,38,38,0.42)" stroke-width="0.8" stroke-linecap="round"/><line x1="70.2" y1="68.2" x2="84.8" y2="71.4" stroke="rgba(220,38,38,0.47)" stroke-width="0.9" stroke-linecap="round"/><line x1="45.2" y1="18.3" x2="55.8" y2="15.8" stroke="rgba(220,38,38,0.35)" stroke-width="0.8" stroke-linecap="round"/><line x1="42.7" y1="53.2" x2="49.6" y2="52.0" stroke="rgba(220,38,38,0.55)" stroke-width="0.8" stroke-linecap="round"/><line x1="83.2" y1="7.5" x2="95.5" y2="-0.3" stroke="rgba(220,38,38,0.50)" stroke-width="1.3" stroke-linecap="round"/><line x1="58.6" y1="44.9" x2="65.0" y2="43.4" stroke="rgba(220,38,38,0.32)" stroke-width="1.4" stroke-linecap="round"/><line x1="75.0" y1="69.4" x2="91.8" y2="74.8" stroke="rgba(220,38,38,0.42)" stroke-width="1.1" stroke-linecap="round"/><line x1="57.8" y1="17.0" x2="65.5" y2="18.7" stroke="rgba(220,38,38,0.22)" stroke-width="1.6" stroke-linecap="round"/><line x1="36.8" y1="61.0" x2="52.2" y2="62.6" stroke="rgba(220,38,38,0.52)" stroke-width="1.8" stroke-linecap="round"/><line x1="81.8" y1="49.1" x2="87.1" y2="50.1" stroke="rgba(220,38,38,0.55)" stroke-width="1.6" stroke-linecap="round"/><line x1="26.7" y1="14.4" x2="35.4" y2="17.0" stroke="rgba(220,38,38,0.32)" stroke-width="0.7" stroke-linecap="round"/><line x1="87.0" y1="45.3" x2="93.8" y2="44.4" stroke="rgba(220,38,38,0.43)" stroke-width="0.7" stroke-linecap="round"/><line x1="74.6" y1="17.2" x2="84.0" y2="16.2" stroke="rgba(220,38,38,0.33)" stroke-width="1.5" stroke-linecap="round"/><line x1="77.7" y1="45.4" x2="82.4" y2="42.3" stroke="rgba(220,38,38,0.24)" stroke-width="1.4" stroke-linecap="round"/><line x1="67.4" y1="21.8" x2="78.4" y2="24.3" stroke="rgba(220,38,38,0.36)" stroke-width="1.0" stroke-linecap="round"/><line x1="75.5" y1="9.1" x2="84.1" y2="8.3" stroke="rgba(220,38,38,0.45)" stroke-width="1.2" stroke-linecap="round"/><line x1="66.7" y1="3.6" x2="79.4" y2="1.8" stroke="rgba(220,38,38,0.18)" stroke-width="1.0" stroke-linecap="round"/><line x1="21.1" y1="11.0" x2="29.9" y2="7.9" stroke="rgba(220,38,38,0.18)" stroke-width="1.5" stroke-linecap="round"/><line x1="17.6" y1="30.4" x2="28.6" y2="33.6" stroke="rgba(220,38,38,0.51)" stroke-width="1.6" stroke-linecap="round"/><line x1="7.2" y1="68.9" x2="11.4" y2="65.8" stroke="rgba(220,38,38,0.55)" stroke-width="1.6" stroke-linecap="round"/><line x1="57.6" y1="45.9" x2="67.6" y2="48.9" stroke="rgba(220,38,38,0.23)" stroke-width="0.7" stroke-linecap="round"/><line x1="32.5" y1="64.1" x2="48.1" y2="66.7" stroke="rgba(220,38,38,0.55)" stroke-width="0.8" stroke-linecap="round"/><line x1="84.4" y1="19.5" x2="96.2" y2="20.9" stroke="rgba(220,38,38,0.34)" stroke-width="1.0" stroke-linecap="round"/><line x1="34.0" y1="26.6" x2="44.4" y2="21.4" stroke="rgba(220,38,38,0.23)" stroke-width="1.3" stroke-linecap="round"/><line x1="90.6" y1="28.0" x2="105.5" y2="32.8" stroke="rgba(220,38,38,0.51)" stroke-width="1.0" stroke-linecap="round"/><line x1="14.6" y1="15.8" x2="29.4" y2="17.9" stroke="rgba(220,38,38,0.44)" stroke-width="0.9" stroke-linecap="round"/><line x1="77.3" y1="39.5" x2="91.2" y2="44.7" stroke="rgba(220,38,38,0.36)" stroke-width="1.7" stroke-linecap="round"/><line x1="56.4" y1="50.8" x2="72.4" y2="53.6" stroke="rgba(220,38,38,0.43)" stroke-width="0.9" stroke-linecap="round"/><line x1="6.8" y1="35.4" x2="15.1" y2="33.0" stroke="rgba(220,38,38,0.20)" stroke-width="1.3" stroke-linecap="round"/><line x1="31.0" y1="36.2" x2="43.9" y2="27.0" stroke="rgba(220,38,38,0.21)" stroke-width="1.7" stroke-linecap="round"/><line x1="85.5" y1="49.2" x2="96.5" y2="49.3" stroke="rgba(220,38,38,0.40)" stroke-width="1.6" stroke-linecap="round"/><line x1="89.6" y1="36.0" x2="101.8" y2="41.6" stroke="rgba(220,38,38,0.31)" stroke-width="1.2" stroke-linecap="round"/><line x1="15.1" y1="4.9" x2="29.3" y2="-3.8" stroke="rgba(220,38,38,0.32)" stroke-width="1.5" stroke-linecap="round"/><line x1="50.5" y1="13.8" x2="60.5" y2="10.1" stroke="rgba(220,38,38,0.36)" stroke-width="1.3" stroke-linecap="round"/><line x1="15.9" y1="29.8" x2="25.7" y2="26.7" stroke="rgba(220,38,38,0.32)" stroke-width="1.4" stroke-linecap="round"/><line x1="78.9" y1="51.8" x2="84.0" y2="48.2" stroke="rgba(220,38,38,0.45)" stroke-width="1.0" stroke-linecap="round"/><line x1="72.4" y1="52.5" x2="86.2" y2="61.3" stroke="rgba(220,38,38,0.31)" stroke-width="1.3" stroke-linecap="round"/><line x1="14.1" y1="28.0" x2="25.3" y2="36.5" stroke="rgba(220,38,38,0.34)" stroke-width="1.4" stroke-linecap="round"/><line x1="93.8" y1="24.8" x2="108.9" y2="22.1" stroke="rgba(220,38,38,0.51)" stroke-width="1.4" stroke-linecap="round"/><line x1="82.9" y1="59.1" x2="94.3" y2="62.1" stroke="rgba(220,38,38,0.44)" stroke-width="1.2" stroke-linecap="round"/><line x1="36.2" y1="29.0" x2="43.2" y2="25.6" stroke="rgba(220,38,38,0.56)" stroke-width="1.2" stroke-linecap="round"/><line x1="22.7" y1="11.0" x2="35.9" y2="2.1" stroke="rgba(220,38,38,0.22)" stroke-width="1.5" stroke-linecap="round"/></pattern></defs><rect width="400" height="250" fill="url(#p)"/><rect width="400" height="250" fill="url(#vig)"/></svg>