<svg xmlns="http://www.w3.org/2000/svg" viewBox="0 0 400 250" width="400" height="250"><rect width="400" height="250" fill="#061730"/><defs><radialGradient id="vig" cx="50%" cy="50%" r="68%"><stop offset="0%" stop-color="transparent"/><stop offset="100%" stop-color="#061730" stop-opacity="0.6"/></radialGradient><pattern id="p" x="0" y="0" width="36" height="36" patternUnits="userSpaceOnUse">
  <line x1="0" y1="0" x2="36" y2="36" stroke="rgba(244,174,31,0.32)" stroke-width="1.3"/>
  <line x1="9" y1="0" x2="36" y2="27" stroke="rgba(244,174,31,0.18)" stroke-width="0.8"/>
  <line x1="0" y1="9" x2="27" y2="36" stroke="rgba(244,174,31,0.18)" stroke-width="0.8"/>
  <line x1="36" y1="0" x2="0" y2="36" stroke="rgba(168,85,247,0.28)" stroke-width="1.1"/>
  <line x1="27" y1="0" x2="0" y2="27" stroke="rgba(168,85,247,0.15)" stroke-width="0.7"/>
  <line x1="0" y1="18" x2="36" y2="18" stroke="rgba(125,162,214,0.22)" stroke-width="0.7"/>
  <line x1="18" y1="0" x2="18" y2="36" stroke="rgba(125,162,214,0.18)" stroke-width="0.6"/>
  <circle cx="18" cy="18" r="3" fill="rgba(244,174,31,0.5)" stroke="rgba(168,85,247,0.4)" stroke-width="1.2"/>
  <circle cx="0" cy="0" r="1.8" fill="rgba(168,85,247,0.4)"/>
  <circle cx="36" cy="0" r="1.8" fill="rgba(168,85,247,0.4)"/>
  <circle cx="0" cy="36" r="1.8" fill="rgba(244,174,31,0.35)"/>
  <circle cx="36" cy="36" r="1.8" fill="rgba(244,174,31,0.35)"/>
  <circle cx="18" cy="0" r="1.2" fill="rgba(125,162,214,0.35)"/>
  <circle cx="0" cy="18" r="1.2" fill="rgba(125,162,214,0.35)"/>
  <circle cx="36" cy="18" r="1.2" fill="rgba(125,162,214,0.35)"/>
  <circle cx="18" cy="36" r="1.2" fill="rgba(125,162,214,0.35)"/>
</pattern></defs><rect width="400" height="250" fill="url(#p)"/><rect width="400" height="250" fill="url(#vig)"/></svg>