<svg xmlns="http://www.w3.org/2000/svg" viewBox="0 0 400 250" width="400" height="250"><rect width="400" height="250" fill="#061730"/><defs><radialGradient id="vig" cx="50%" cy="50%" r="68%"><stop offset="0%" stop-color="transparent"/><stop offset="100%" stop-color="#061730" stop-opacity="0.6"/></radialGradient><pattern id="p" x="0" y="0" width="80" height="80" patternUnits="userSpaceOnUse"><line x1="25.9" y1="12.1" x2="30.9" y2="13.7" stroke="rgba(2,132,199,0.32)" stroke-width="1.2" stroke-linecap="round"/><line x1="4.6" y1="40.6" x2="11.3" y2="30.9" stroke="rgba(2,132,199,0.15)" stroke-width="0.7" stroke-linecap="round"/><line x1="34.0" y1="66.1" x2="39.6" y2="60.5" stroke="rgba(2,132,199,0.36)" stroke-width="2.4" stroke-linecap="round"/><line x1="46.2" y1="31.7" x2="48.8" y2="35.8" stroke="rgba(2,132,199,0.45)" stroke-width="1.1" stroke-linecap="round"/><line x1="11.5" y1="9.4" x2="28.7" y2="2.1" stroke="rgba(2,132,199,0.19)" stroke-width="1.7" stroke-linecap="round"/><line x1="51.1" y1="29.8" x2="56.2" y2="30.3" stroke="rgba(2,132,199,0.14)" stroke-width="0.9" stroke-linecap="round"/><line x1="54.4" y1="34.2" x2="67.9" y2="28.7" stroke="rgba(2,132,199,0.29)" stroke-width="1.1" stroke-linecap="round"/><line x1="63.6" y1="55.9" x2="75.9" y2="48.6" stroke="rgba(2,132,199,0.32)" stroke-width="2.3" stroke-linecap="round"/><line x1="58.4" y1="23.0" x2="61.6" y2="28.2" stroke="rgba(2,132,199,0.28)" stroke-width="2.0" stroke-linecap="round"/><line x1="12.2" y1="39.1" x2="21.3" y2="25.9" stroke="rgba(2,132,199,0.41)" stroke-width="1.6" stroke-linecap="round"/><line x1="70.0" y1="25.1" x2="83.5" y2="30.9" stroke="rgba(2,132,199,0.34)" stroke-width="1.4" stroke-linecap="round"/><line x1="67.2" y1="75.6" x2="83.1" y2="74.7" stroke="rgba(2,132,199,0.14)" stroke-width="1.9" stroke-linecap="round"/><line x1="51.8" y1="79.4" x2="58.9" y2="85.1" stroke="rgba(2,132,199,0.27)" stroke-width="1.8" stroke-linecap="round"/><line x1="1.8" y1="36.9" x2="6.5" y2="33.0" stroke="rgba(2,132,199,0.14)" stroke-width="2.0" stroke-linecap="round"/><line x1="10.3" y1="19.8" x2="29.5" y2="15.4" stroke="rgba(2,132,199,0.15)" stroke-width="1.4" stroke-linecap="round"/><line x1="44.0" y1="70.7" x2="59.3" y2="82.8" stroke="rgba(2,132,199,0.23)" stroke-width="1.3" stroke-linecap="round"/><line x1="28.7" y1="70.7" x2="32.6" y2="76.2" stroke="rgba(2,132,199,0.19)" stroke-width="1.0" stroke-linecap="round"/><line x1="18.7" y1="38.8" x2="27.2" y2="40.4" stroke="rgba(2,132,199,0.12)" stroke-width="1.3" stroke-linecap="round"/><line x1="29.5" y1="45.3" x2="39.1" y2="58.7" stroke="rgba(2,132,199,0.32)" stroke-width="1.7" stroke-linecap="round"/><line x1="54.1" y1="4.3" x2="66.2" y2="17.7" stroke="rgba(2,132,199,0.45)" stroke-width="2.1" stroke-linecap="round"/><line x1="31.4" y1="31.9" x2="41.8" y2="20.5" stroke="rgba(2,132,199,0.14)" stroke-width="0.6" stroke-linecap="round"/><line x1="16.7" y1="13.0" x2="21.4" y2="11.4" stroke="rgba(2,132,199,0.12)" stroke-width="0.8" stroke-linecap="round"/><line x1="8.1" y1="29.1" x2="18.9" y2="12.5" stroke="rgba(2,132,199,0.35)" stroke-width="0.8" stroke-linecap="round"/><line x1="20.2" y1="27.8" x2="26.1" y2="26.0" stroke="rgba(2,132,199,0.44)" stroke-width="2.5" stroke-linecap="round"/><line x1="37.3" y1="38.7" x2="41.1" y2="34.3" stroke="rgba(2,132,199,0.25)" stroke-width="1.0" stroke-linecap="round"/><line x1="66.3" y1="12.9" x2="77.7" y2="-4.8" stroke="rgba(2,132,199,0.32)" stroke-width="0.8" stroke-linecap="round"/><line x1="43.5" y1="2.2" x2="65.0" y2="3.4" stroke="rgba(2,132,199,0.45)" stroke-width="1.9" stroke-linecap="round"/><line x1="20.9" y1="29.3" x2="34.6" y2="17.8" stroke="rgba(2,132,199,0.32)" stroke-width="2.1" stroke-linecap="round"/><line x1="26.4" y1="17.8" x2="43.6" y2="31.0" stroke="rgba(2,132,199,0.44)" stroke-width="2.1" stroke-linecap="round"/><line x1="65.5" y1="59.2" x2="76.7" y2="52.0" stroke="rgba(2,132,199,0.26)" stroke-width="0.6" stroke-linecap="round"/><line x1="2.2" y1="22.4" x2="16.6" y2="14.4" stroke="rgba(2,132,199,0.48)" stroke-width="1.4" stroke-linecap="round"/><line x1="75.0" y1="79.0" x2="81.1" y2="87.7" stroke="rgba(2,132,199,0.20)" stroke-width="1.0" stroke-linecap="round"/><line x1="15.7" y1="16.3" x2="35.3" y2="21.5" stroke="rgba(2,132,199,0.44)" stroke-width="1.5" stroke-linecap="round"/><line x1="52.2" y1="64.0" x2="62.5" y2="51.8" stroke="rgba(2,132,199,0.47)" stroke-width="2.1" stroke-linecap="round"/><line x1="60.0" y1="38.2" x2="74.2" y2="26.9" stroke="rgba(2,132,199,0.25)" stroke-width="2.1" stroke-linecap="round"/><line x1="77.7" y1="31.7" x2="98.3" y2="27.4" stroke="rgba(2,132,199,0.40)" stroke-width="0.8" stroke-linecap="round"/><line x1="10.2" y1="12.1" x2="22.4" y2="26.0" stroke="rgba(2,132,199,0.18)" stroke-width="2.2" stroke-linecap="round"/><line x1="78.4" y1="52.6" x2="91.6" y2="48.3" stroke="rgba(2,132,199,0.17)" stroke-width="0.5" stroke-linecap="round"/><line x1="77.7" y1="52.0" x2="98.4" y2="53.1" stroke="rgba(2,132,199,0.28)" stroke-width="2.2" stroke-linecap="round"/><line x1="66.1" y1="16.9" x2="74.1" y2="12.3" stroke="rgba(2,132,199,0.21)" stroke-width="1.7" stroke-linecap="round"/><line x1="20.7" y1="33.5" x2="35.3" y2="19.3" stroke="rgba(2,132,199,0.25)" stroke-width="1.4" stroke-linecap="round"/><line x1="46.7" y1="72.3" x2="66.9" y2="68.9" stroke="rgba(2,132,199,0.31)" stroke-width="1.6" stroke-linecap="round"/><line x1="41.9" y1="1.5" x2="49.1" y2="0.6" stroke="rgba(2,132,199,0.12)" stroke-width="2.1" stroke-linecap="round"/><line x1="13.8" y1="37.9" x2="26.3" y2="44.2" stroke="rgba(2,132,199,0.24)" stroke-width="1.5" stroke-linecap="round"/><line x1="44.4" y1="62.7" x2="54.0" y2="52.4" stroke="rgba(2,132,199,0.21)" stroke-width="1.1" stroke-linecap="round"/><line x1="61.8" y1="40.6" x2="79.3" y2="42.9" stroke="rgba(2,132,199,0.47)" stroke-width="1.4" stroke-linecap="round"/><line x1="49.0" y1="40.4" x2="65.5" y2="40.9" stroke="rgba(2,132,199,0.29)" stroke-width="1.6" stroke-linecap="round"/><line x1="38.2" y1="75.3" x2="56.3" y2="83.3" stroke="rgba(2,132,199,0.48)" stroke-width="1.0" stroke-linecap="round"/><line x1="44.8" y1="75.5" x2="49.7" y2="79.7" stroke="rgba(2,132,199,0.17)" stroke-width="1.4" stroke-linecap="round"/><line x1="5.8" y1="19.3" x2="15.9" y2="6.7" stroke="rgba(2,132,199,0.42)" stroke-width="2.3" stroke-linecap="round"/><line x1="12.4" y1="57.3" x2="18.6" y2="59.5" stroke="rgba(2,132,199,0.46)" stroke-width="2.4" stroke-linecap="round"/><line x1="17.6" y1="76.2" x2="30.0" y2="73.5" stroke="rgba(2,132,199,0.50)" stroke-width="2.2" stroke-linecap="round"/><line x1="12.9" y1="34.5" x2="23.0" y2="34.9" stroke="rgba(2,132,199,0.19)" stroke-width="1.1" stroke-linecap="round"/><line x1="57.8" y1="1.6" x2="69.6" y2="2.9" stroke="rgba(2,132,199,0.13)" stroke-width="1.2" stroke-linecap="round"/><line x1="49.9" y1="41.0" x2="63.2" y2="23.8" stroke="rgba(2,132,199,0.42)" stroke-width="2.4" stroke-linecap="round"/><line x1="8.4" y1="21.2" x2="18.7" y2="6.4" stroke="rgba(2,132,199,0.22)" stroke-width="0.8" stroke-linecap="round"/><line x1="33.8" y1="72.9" x2="40.6" y2="78.3" stroke="rgba(2,132,199,0.18)" stroke-width="2.3" stroke-linecap="round"/><line x1="45.6" y1="56.0" x2="48.9" y2="52.2" stroke="rgba(2,132,199,0.38)" stroke-width="1.4" stroke-linecap="round"/><line x1="5.8" y1="75.1" x2="23.5" y2="80.2" stroke="rgba(2,132,199,0.15)" stroke-width="2.2" stroke-linecap="round"/><line x1="5.3" y1="69.0" x2="15.4" y2="68.0" stroke="rgba(2,132,199,0.33)" stroke-width="2.4" stroke-linecap="round"/><line x1="21.4" y1="10.3" x2="29.7" y2="10.8" stroke="rgba(2,132,199,0.16)" stroke-width="0.8" stroke-linecap="round"/><line x1="4.0" y1="16.1" x2="12.8" y2="12.5" stroke="rgba(2,132,199,0.41)" stroke-width="1.1" stroke-linecap="round"/><line x1="40.0" y1="14.2" x2="44.1" y2="12.9" stroke="rgba(2,132,199,0.22)" stroke-width="0.5" stroke-linecap="round"/><line x1="58.6" y1="44.1" x2="68.6" y2="36.5" stroke="rgba(2,132,199,0.48)" stroke-width="0.7" stroke-linecap="round"/><line x1="65.5" y1="34.6" x2="84.5" y2="34.4" stroke="rgba(2,132,199,0.27)" stroke-width="1.5" stroke-linecap="round"/><line x1="55.0" y1="78.6" x2="73.0" y2="72.5" stroke="rgba(2,132,199,0.39)" stroke-width="1.8" stroke-linecap="round"/><line x1="32.4" y1="27.8" x2="36.1" y2="22.7" stroke="rgba(2,132,199,0.15)" stroke-width="2.0" stroke-linecap="round"/><line x1="20.4" y1="13.1" x2="32.8" y2="-1.6" stroke="rgba(2,132,199,0.45)" stroke-width="1.8" stroke-linecap="round"/><line x1="22.6" y1="19.4" x2="33.7" y2="14.2" stroke="rgba(2,132,199,0.18)" stroke-width="1.4" stroke-linecap="round"/><line x1="21.1" y1="76.9" x2="28.7" y2="88.5" stroke="rgba(2,132,199,0.21)" stroke-width="2.4" stroke-linecap="round"/><line x1="24.8" y1="28.5" x2="30.2" y2="19.1" stroke="rgba(2,132,199,0.30)" stroke-width="1.5" stroke-linecap="round"/><line x1="16.1" y1="40.4" x2="20.5" y2="32.8" stroke="rgba(2,132,199,0.15)" stroke-width="1.3" stroke-linecap="round"/><line x1="3.3" y1="1.8" x2="10.8" y2="-1.5" stroke="rgba(2,132,199,0.34)" stroke-width="1.6" stroke-linecap="round"/><line x1="60.0" y1="52.6" x2="77.9" y2="61.3" stroke="rgba(2,132,199,0.27)" stroke-width="1.2" stroke-linecap="round"/><line x1="78.8" y1="12.0" x2="92.7" y2="19.0" stroke="rgba(2,132,199,0.14)" stroke-width="2.2" stroke-linecap="round"/><line x1="71.4" y1="50.2" x2="87.8" y2="58.9" stroke="rgba(2,132,199,0.17)" stroke-width="1.5" stroke-linecap="round"/><line x1="40.3" y1="66.8" x2="55.5" y2="78.0" stroke="rgba(2,132,199,0.34)" stroke-width="2.3" stroke-linecap="round"/><line x1="54.6" y1="55.5" x2="58.5" y2="53.0" stroke="rgba(2,132,199,0.17)" stroke-width="1.2" stroke-linecap="round"/><line x1="8.4" y1="66.9" x2="23.6" y2="68.7" stroke="rgba(2,132,199,0.36)" stroke-width="1.9" stroke-linecap="round"/><line x1="39.1" y1="0.3" x2="53.3" y2="10.5" stroke="rgba(2,132,199,0.31)" stroke-width="1.6" stroke-linecap="round"/><line x1="52.7" y1="5.3" x2="60.3" y2="9.3" stroke="rgba(2,132,199,0.15)" stroke-width="1.0" stroke-linecap="round"/><line x1="58.3" y1="16.4" x2="77.2" y2="26.8" stroke="rgba(2,132,199,0.31)" stroke-width="1.3" stroke-linecap="round"/><line x1="38.3" y1="54.7" x2="51.1" y2="62.7" stroke="rgba(2,132,199,0.36)" stroke-width="0.7" stroke-linecap="round"/><line x1="11.8" y1="20.3" x2="20.1" y2="24.9" stroke="rgba(2,132,199,0.34)" stroke-width="0.5" stroke-linecap="round"/><line x1="4.9" y1="21.5" x2="20.3" y2="27.3" stroke="rgba(2,132,199,0.38)" stroke-width="1.1" stroke-linecap="round"/><line x1="41.3" y1="37.2" x2="47.4" y2="36.7" stroke="rgba(2,132,199,0.46)" stroke-width="0.9" stroke-linecap="round"/><line x1="78.3" y1="74.9" x2="84.8" y2="64.5" stroke="rgba(2,132,199,0.43)" stroke-width="2.4" stroke-linecap="round"/><line x1="36.0" y1="21.5" x2="53.2" y2="9.5" stroke="rgba(2,132,199,0.20)" stroke-width="1.7" stroke-linecap="round"/><line x1="11.3" y1="41.9" x2="15.1" y2="47.1" stroke="rgba(2,132,199,0.43)" stroke-width="1.5" stroke-linecap="round"/><line x1="70.9" y1="56.3" x2="88.0" y2="45.5" stroke="rgba(2,132,199,0.30)" stroke-width="0.5" stroke-linecap="round"/><line x1="0.3" y1="39.3" x2="9.7" y2="38.4" stroke="rgba(2,132,199,0.17)" stroke-width="1.2" stroke-linecap="round"/><line x1="25.3" y1="67.2" x2="34.1" y2="52.1" stroke="rgba(2,132,199,0.44)" stroke-width="0.7" stroke-linecap="round"/><line x1="74.1" y1="57.0" x2="80.3" y2="63.9" stroke="rgba(2,132,199,0.26)" stroke-width="1.3" stroke-linecap="round"/><line x1="79.9" y1="47.1" x2="91.1" y2="43.8" stroke="rgba(2,132,199,0.22)" stroke-width="0.6" stroke-linecap="round"/><line x1="8.1" y1="66.8" x2="26.9" y2="57.7" stroke="rgba(2,132,199,0.21)" stroke-width="1.0" stroke-linecap="round"/><line x1="40.9" y1="15.2" x2="61.3" y2="9.6" stroke="rgba(2,132,199,0.46)" stroke-width="2.1" stroke-linecap="round"/><line x1="50.5" y1="73.1" x2="58.9" y2="84.1" stroke="rgba(2,132,199,0.39)" stroke-width="0.6" stroke-linecap="round"/><line x1="58.6" y1="36.1" x2="72.1" y2="43.9" stroke="rgba(2,132,199,0.23)" stroke-width="0.6" stroke-linecap="round"/><line x1="74.1" y1="10.2" x2="84.3" y2="9.6" stroke="rgba(2,132,199,0.23)" stroke-width="2.0" stroke-linecap="round"/><line x1="78.1" y1="20.8" x2="87.0" y2="23.8" stroke="rgba(2,132,199,0.33)" stroke-width="1.3" stroke-linecap="round"/><line x1="13.4" y1="12.9" x2="30.0" y2="1.3" stroke="rgba(2,132,199,0.31)" stroke-width="0.9" stroke-linecap="round"/><line x1="72.5" y1="79.7" x2="79.0" y2="79.0" stroke="rgba(2,132,199,0.19)" stroke-width="0.7" stroke-linecap="round"/><line x1="27.4" y1="7.3" x2="34.7" y2="2.8" stroke="rgba(2,132,199,0.34)" stroke-width="2.3" stroke-linecap="round"/><line x1="60.0" y1="33.0" x2="73.2" y2="30.6" stroke="rgba(2,132,199,0.26)" stroke-width="1.2" stroke-linecap="round"/><line x1="5.0" y1="22.2" x2="8.5" y2="27.4" stroke="rgba(2,132,199,0.31)" stroke-width="1.8" stroke-linecap="round"/><line x1="69.0" y1="17.3" x2="76.5" y2="13.4" stroke="rgba(2,132,199,0.27)" stroke-width="1.4" stroke-linecap="round"/><line x1="76.3" y1="67.9" x2="79.4" y2="71.0" stroke="rgba(2,132,199,0.13)" stroke-width="1.9" stroke-linecap="round"/><line x1="71.7" y1="37.9" x2="75.6" y2="38.6" stroke="rgba(2,132,199,0.27)" stroke-width="2.4" stroke-linecap="round"/><line x1="66.0" y1="68.4" x2="70.7" y2="75.5" stroke="rgba(2,132,199,0.16)" stroke-width="0.8" stroke-linecap="round"/><line x1="41.8" y1="54.6" x2="52.0" y2="68.1" stroke="rgba(2,132,199,0.37)" stroke-width="2.0" stroke-linecap="round"/><line x1="36.6" y1="44.1" x2="46.9" y2="29.3" stroke="rgba(2,132,199,0.21)" stroke-width="2.3" stroke-linecap="round"/><line x1="51.6" y1="24.3" x2="57.7" y2="18.3" stroke="rgba(2,132,199,0.36)" stroke-width="1.9" stroke-linecap="round"/><line x1="9.0" y1="5.6" x2="23.4" y2="6.4" stroke="rgba(2,132,199,0.27)" stroke-width="0.9" stroke-linecap="round"/><line x1="48.1" y1="0.8" x2="59.3" y2="-4.1" stroke="rgba(2,132,199,0.48)" stroke-width="1.8" stroke-linecap="round"/><line x1="70.7" y1="38.0" x2="77.9" y2="33.6" stroke="rgba(2,132,199,0.49)" stroke-width="1.9" stroke-linecap="round"/><line x1="24.6" y1="1.7" x2="40.7" y2="1.7" stroke="rgba(2,132,199,0.28)" stroke-width="1.0" stroke-linecap="round"/><line x1="53.4" y1="74.0" x2="57.3" y2="71.5" stroke="rgba(2,132,199,0.25)" stroke-width="1.3" stroke-linecap="round"/><line x1="54.6" y1="15.8" x2="68.7" y2="25.9" stroke="rgba(2,132,199,0.31)" stroke-width="0.9" stroke-linecap="round"/><line x1="77.6" y1="24.9" x2="84.0" y2="30.0" stroke="rgba(2,132,199,0.20)" stroke-width="2.0" stroke-linecap="round"/><line x1="23.6" y1="76.2" x2="31.0" y2="76.1" stroke="rgba(2,132,199,0.20)" stroke-width="1.3" stroke-linecap="round"/><line x1="53.2" y1="75.9" x2="61.4" y2="68.4" stroke="rgba(2,132,199,0.20)" stroke-width="2.4" stroke-linecap="round"/><line x1="11.4" y1="4.1" x2="18.1" y2="-4.7" stroke="rgba(2,132,199,0.46)" stroke-width="2.3" stroke-linecap="round"/><line x1="58.6" y1="79.8" x2="64.8" y2="87.6" stroke="rgba(2,132,199,0.19)" stroke-width="2.4" stroke-linecap="round"/><line x1="59.7" y1="2.6" x2="69.9" y2="6.2" stroke="rgba(2,132,199,0.26)" stroke-width="1.2" stroke-linecap="round"/><line x1="13.5" y1="0.2" x2="22.8" y2="-4.4" stroke="rgba(2,132,199,0.48)" stroke-width="0.7" stroke-linecap="round"/><line x1="77.1" y1="16.6" x2="95.1" y2="11.0" stroke="rgba(2,132,199,0.43)" stroke-width="1.4" stroke-linecap="round"/><line x1="3.9" y1="37.9" x2="23.8" y2="32.5" stroke="rgba(2,132,199,0.19)" stroke-width="1.2" stroke-linecap="round"/><line x1="71.8" y1="2.4" x2="90.0" y2="-1.0" stroke="rgba(2,132,199,0.41)" stroke-width="0.6" stroke-linecap="round"/><line x1="2.8" y1="5.0" x2="8.3" y2="11.7" stroke="rgba(2,132,199,0.40)" stroke-width="2.3" stroke-linecap="round"/><line x1="27.1" y1="21.8" x2="35.8" y2="34.1" stroke="rgba(2,132,199,0.22)" stroke-width="1.9" stroke-linecap="round"/><line x1="25.3" y1="22.1" x2="34.2" y2="6.9" stroke="rgba(2,132,199,0.47)" stroke-width="1.8" stroke-linecap="round"/><line x1="75.5" y1="1.9" x2="86.1" y2="-4.7" stroke="rgba(2,132,199,0.48)" stroke-width="2.4" stroke-linecap="round"/><line x1="30.9" y1="20.1" x2="43.7" y2="18.2" stroke="rgba(2,132,199,0.47)" stroke-width="0.9" stroke-linecap="round"/><line x1="64.2" y1="59.1" x2="78.2" y2="70.3" stroke="rgba(2,132,199,0.35)" stroke-width="1.2" stroke-linecap="round"/><line x1="25.6" y1="28.9" x2="30.1" y2="32.0" stroke="rgba(2,132,199,0.19)" stroke-width="2.0" stroke-linecap="round"/><line x1="19.8" y1="5.2" x2="27.6" y2="-6.4" stroke="rgba(2,132,199,0.24)" stroke-width="2.5" stroke-linecap="round"/><line x1="70.7" y1="79.0" x2="75.5" y2="76.4" stroke="rgba(2,132,199,0.16)" stroke-width="1.5" stroke-linecap="round"/><line x1="56.8" y1="35.8" x2="66.5" y2="29.7" stroke="rgba(2,132,199,0.36)" stroke-width="1.8" stroke-linecap="round"/><line x1="59.8" y1="67.8" x2="65.7" y2="69.8" stroke="rgba(2,132,199,0.44)" stroke-width="1.1" stroke-linecap="round"/><line x1="45.4" y1="29.8" x2="52.0" y2="33.5" stroke="rgba(2,132,199,0.21)" stroke-width="1.0" stroke-linecap="round"/><line x1="12.3" y1="70.7" x2="22.0" y2="72.3" stroke="rgba(2,132,199,0.27)" stroke-width="2.5" stroke-linecap="round"/><line x1="40.6" y1="18.5" x2="53.2" y2="28.0" stroke="rgba(2,132,199,0.50)" stroke-width="0.7" stroke-linecap="round"/><line x1="38.0" y1="65.5" x2="53.5" y2="78.9" stroke="rgba(2,132,199,0.14)" stroke-width="1.1" stroke-linecap="round"/><line x1="9.5" y1="15.2" x2="17.5" y2="27.3" stroke="rgba(2,132,199,0.47)" stroke-width="1.2" stroke-linecap="round"/><line x1="69.3" y1="35.9" x2="85.1" y2="27.3" stroke="rgba(2,132,199,0.48)" stroke-width="0.7" stroke-linecap="round"/><line x1="47.7" y1="49.6" x2="56.5" y2="43.7" stroke="rgba(2,132,199,0.17)" stroke-width="0.9" stroke-linecap="round"/><line x1="20.4" y1="48.0" x2="27.7" y2="50.3" stroke="rgba(2,132,199,0.12)" stroke-width="1.2" stroke-linecap="round"/><line x1="54.3" y1="14.8" x2="61.3" y2="11.9" stroke="rgba(2,132,199,0.42)" stroke-width="1.6" stroke-linecap="round"/><line x1="5.1" y1="8.1" x2="18.6" y2="5.1" stroke="rgba(2,132,199,0.36)" stroke-width="0.7" stroke-linecap="round"/><line x1="13.1" y1="55.6" x2="22.0" y2="53.9" stroke="rgba(2,132,199,0.24)" stroke-width="2.4" stroke-linecap="round"/><line x1="25.0" y1="45.3" x2="36.0" y2="41.9" stroke="rgba(2,132,199,0.45)" stroke-width="2.5" stroke-linecap="round"/><line x1="29.1" y1="15.8" x2="35.9" y2="19.3" stroke="rgba(2,132,199,0.12)" stroke-width="2.3" stroke-linecap="round"/><line x1="33.9" y1="65.6" x2="53.4" y2="61.7" stroke="rgba(2,132,199,0.30)" stroke-width="0.8" stroke-linecap="round"/><line x1="1.2" y1="44.1" x2="20.7" y2="50.0" stroke="rgba(2,132,199,0.15)" stroke-width="1.7" stroke-linecap="round"/><line x1="29.7" y1="40.4" x2="36.4" y2="34.2" stroke="rgba(2,132,199,0.32)" stroke-width="2.4" stroke-linecap="round"/><line x1="8.7" y1="39.2" x2="25.9" y2="52.0" stroke="rgba(2,132,199,0.19)" stroke-width="0.8" stroke-linecap="round"/><line x1="75.4" y1="78.0" x2="80.4" y2="77.9" stroke="rgba(2,132,199,0.47)" stroke-width="1.3" stroke-linecap="round"/><line x1="72.3" y1="49.6" x2="77.7" y2="54.0" stroke="rgba(2,132,199,0.42)" stroke-width="0.9" stroke-linecap="round"/><line x1="32.4" y1="67.7" x2="38.0" y2="72.3" stroke="rgba(2,132,199,0.20)" stroke-width="1.3" stroke-linecap="round"/><line x1="41.4" y1="30.7" x2="47.4" y2="24.7" stroke="rgba(2,132,199,0.40)" stroke-width="2.3" stroke-linecap="round"/><line x1="3.3" y1="45.0" x2="7.3" y2="47.4" stroke="rgba(2,132,199,0.44)" stroke-width="0.7" stroke-linecap="round"/><line x1="48.0" y1="44.0" x2="57.1" y2="46.5" stroke="rgba(2,132,199,0.28)" stroke-width="1.7" stroke-linecap="round"/><line x1="34.1" y1="52.7" x2="45.9" y2="51.4" stroke="rgba(2,132,199,0.13)" stroke-width="1.7" stroke-linecap="round"/><line x1="39.2" y1="18.8" x2="54.5" y2="28.3" stroke="rgba(2,132,199,0.29)" stroke-width="0.9" stroke-linecap="round"/><line x1="37.9" y1="8.6" x2="46.2" y2="0.3" stroke="rgba(2,132,199,0.15)" stroke-width="1.4" stroke-linecap="round"/><line x1="40.8" y1="3.3" x2="46.1" y2="4.8" stroke="rgba(2,132,199,0.40)" stroke-width="2.1" stroke-linecap="round"/><line x1="40.9" y1="4.3" x2="51.7" y2="4.4" stroke="rgba(2,132,199,0.48)" stroke-width="0.8" stroke-linecap="round"/><line x1="68.6" y1="79.7" x2="85.1" y2="88.4" stroke="rgba(2,132,199,0.19)" stroke-width="2.5" stroke-linecap="round"/><line x1="39.3" y1="76.5" x2="43.8" y2="81.9" stroke="rgba(2,132,199,0.42)" stroke-width="2.4" stroke-linecap="round"/><line x1="5.2" y1="28.1" x2="11.1" y2="31.6" stroke="rgba(2,132,199,0.46)" stroke-width="1.0" stroke-linecap="round"/><line x1="65.3" y1="11.5" x2="85.8" y2="11.6" stroke="rgba(2,132,199,0.20)" stroke-width="1.0" stroke-linecap="round"/><line x1="40.5" y1="25.5" x2="44.6" y2="19.5" stroke="rgba(2,132,199,0.18)" stroke-width="2.4" stroke-linecap="round"/><line x1="54.4" y1="71.6" x2="68.3" y2="60.0" stroke="rgba(2,132,199,0.16)" stroke-width="1.6" stroke-linecap="round"/><line x1="50.9" y1="28.8" x2="60.8" y2="38.6" stroke="rgba(2,132,199,0.34)" stroke-width="2.3" stroke-linecap="round"/><line x1="8.4" y1="79.4" x2="19.1" y2="82.4" stroke="rgba(2,132,199,0.42)" stroke-width="1.0" stroke-linecap="round"/><line x1="79.2" y1="46.2" x2="96.2" y2="41.1" stroke="rgba(2,132,199,0.29)" stroke-width="0.9" stroke-linecap="round"/><line x1="59.5" y1="3.9" x2="66.2" y2="9.2" stroke="rgba(2,132,199,0.36)" stroke-width="2.5" stroke-linecap="round"/><line x1="46.9" y1="53.1" x2="50.6" y2="51.6" stroke="rgba(2,132,199,0.13)" stroke-width="0.8" stroke-linecap="round"/><line x1="49.3" y1="34.6" x2="69.4" y2="35.1" stroke="rgba(2,132,199,0.17)" stroke-width="1.0" stroke-linecap="round"/><line x1="52.2" y1="1.8" x2="57.5" y2="-7.2" stroke="rgba(2,132,199,0.16)" stroke-width="1.2" stroke-linecap="round"/><line x1="17.9" y1="46.7" x2="25.5" y2="48.1" stroke="rgba(2,132,199,0.36)" stroke-width="1.4" stroke-linecap="round"/><line x1="10.8" y1="74.9" x2="16.5" y2="71.5" stroke="rgba(2,132,199,0.16)" stroke-width="1.8" stroke-linecap="round"/><line x1="69.7" y1="62.6" x2="78.3" y2="60.8" stroke="rgba(2,132,199,0.12)" stroke-width="1.8" stroke-linecap="round"/><line x1="45.0" y1="28.0" x2="56.4" y2="31.6" stroke="rgba(2,132,199,0.48)" stroke-width="2.0" stroke-linecap="round"/><line x1="19.9" y1="72.3" x2="27.7" y2="61.2" stroke="rgba(2,132,199,0.27)" stroke-width="1.0" stroke-linecap="round"/><line x1="4.7" y1="62.3" x2="11.9" y2="50.4" stroke="rgba(2,132,199,0.48)" stroke-width="0.8" stroke-linecap="round"/><line x1="16.0" y1="48.6" x2="31.5" y2="48.9" stroke="rgba(2,132,199,0.43)" stroke-width="0.8" stroke-linecap="round"/><line x1="24.8" y1="24.0" x2="36.5" y2="7.8" stroke="rgba(2,132,199,0.42)" stroke-width="1.9" stroke-linecap="round"/><line x1="0.5" y1="67.6" x2="11.3" y2="73.6" stroke="rgba(2,132,199,0.40)" stroke-width="1.4" stroke-linecap="round"/><line x1="18.1" y1="8.4" x2="22.1" y2="5.9" stroke="rgba(2,132,199,0.25)" stroke-width="2.0" stroke-linecap="round"/><line x1="55.6" y1="67.6" x2="63.5" y2="71.4" stroke="rgba(2,132,199,0.33)" stroke-width="1.4" stroke-linecap="round"/><line x1="63.1" y1="41.9" x2="76.8" y2="34.5" stroke="rgba(2,132,199,0.49)" stroke-width="0.9" stroke-linecap="round"/><line x1="70.4" y1="1.2" x2="77.6" y2="-2.8" stroke="rgba(2,132,199,0.40)" stroke-width="2.4" stroke-linecap="round"/><line x1="59.7" y1="26.1" x2="66.6" y2="33.2" stroke="rgba(2,132,199,0.21)" stroke-width="2.3" stroke-linecap="round"/><line x1="50.5" y1="55.4" x2="70.8" y2="62.8" stroke="rgba(2,132,199,0.30)" stroke-width="2.2" stroke-linecap="round"/><line x1="55.8" y1="68.6" x2="72.7" y2="66.4" stroke="rgba(2,132,199,0.34)" stroke-width="1.1" stroke-linecap="round"/><line x1="17.0" y1="49.8" x2="29.9" y2="34.0" stroke="rgba(2,132,199,0.17)" stroke-width="0.6" stroke-linecap="round"/><line x1="8.5" y1="74.3" x2="14.7" y2="72.2" stroke="rgba(2,132,199,0.13)" stroke-width="0.6" stroke-linecap="round"/><line x1="55.4" y1="50.7" x2="71.2" y2="57.6" stroke="rgba(2,132,199,0.14)" stroke-width="1.7" stroke-linecap="round"/><line x1="29.1" y1="65.4" x2="44.8" y2="77.8" stroke="rgba(2,132,199,0.15)" stroke-width="2.2" stroke-linecap="round"/><line x1="73.2" y1="75.5" x2="78.4" y2="69.9" stroke="rgba(2,132,199,0.16)" stroke-width="0.6" stroke-linecap="round"/><line x1="67.8" y1="65.0" x2="85.9" y2="70.2" stroke="rgba(2,132,199,0.36)" stroke-width="1.1" stroke-linecap="round"/><line x1="8.0" y1="7.8" x2="14.6" y2="11.8" stroke="rgba(2,132,199,0.24)" stroke-width="1.3" stroke-linecap="round"/><line x1="1.7" y1="20.5" x2="16.8" y2="13.1" stroke="rgba(2,132,199,0.26)" stroke-width="1.1" stroke-linecap="round"/><line x1="77.1" y1="40.3" x2="88.3" y2="50.5" stroke="rgba(2,132,199,0.13)" stroke-width="1.3" stroke-linecap="round"/><line x1="34.9" y1="61.8" x2="50.7" y2="56.6" stroke="rgba(2,132,199,0.32)" stroke-width="0.9" stroke-linecap="round"/><line x1="69.0" y1="7.3" x2="74.5" y2="11.7" stroke="rgba(2,132,199,0.12)" stroke-width="0.9" stroke-linecap="round"/><line x1="61.0" y1="78.2" x2="67.5" y2="67.2" stroke="rgba(2,132,199,0.31)" stroke-width="2.1" stroke-linecap="round"/><line x1="14.8" y1="39.6" x2="32.8" y2="33.6" stroke="rgba(2,132,199,0.22)" stroke-width="2.4" stroke-linecap="round"/><line x1="22.7" y1="17.2" x2="34.6" y2="22.4" stroke="rgba(2,132,199,0.16)" stroke-width="1.8" stroke-linecap="round"/><line x1="6.5" y1="63.0" x2="23.1" y2="70.3" stroke="rgba(2,132,199,0.36)" stroke-width="1.2" stroke-linecap="round"/><line x1="32.1" y1="31.6" x2="35.9" y2="35.6" stroke="rgba(2,132,199,0.46)" stroke-width="0.6" stroke-linecap="round"/><line x1="16.5" y1="21.1" x2="25.2" y2="30.8" stroke="rgba(2,132,199,0.26)" stroke-width="2.3" stroke-linecap="round"/><line x1="18.7" y1="36.9" x2="36.2" y2="38.0" stroke="rgba(2,132,199,0.41)" stroke-width="1.8" stroke-linecap="round"/><line x1="27.9" y1="26.1" x2="42.3" y2="13.5" stroke="rgba(2,132,199,0.37)" stroke-width="2.0" stroke-linecap="round"/><line x1="13.6" y1="35.1" x2="25.7" y2="42.9" stroke="rgba(2,132,199,0.17)" stroke-width="1.4" stroke-linecap="round"/><line x1="70.8" y1="19.0" x2="78.3" y2="13.4" stroke="rgba(2,132,199,0.39)" stroke-width="2.2" stroke-linecap="round"/><line x1="12.4" y1="12.5" x2="20.9" y2="7.5" stroke="rgba(2,132,199,0.32)" stroke-width="0.8" stroke-linecap="round"/><line x1="26.2" y1="15.1" x2="35.6" y2="29.5" stroke="rgba(2,132,199,0.16)" stroke-width="2.4" stroke-linecap="round"/><line x1="8.1" y1="30.7" x2="17.8" y2="46.3" stroke="rgba(2,132,199,0.40)" stroke-width="1.4" stroke-linecap="round"/><line x1="15.7" y1="51.0" x2="20.9" y2="45.4" stroke="rgba(2,132,199,0.27)" stroke-width="0.6" stroke-linecap="round"/><line x1="31.9" y1="63.3" x2="43.9" y2="68.4" stroke="rgba(2,132,199,0.36)" stroke-width="1.4" stroke-linecap="round"/><line x1="11.3" y1="48.3" x2="28.3" y2="44.9" stroke="rgba(2,132,199,0.47)" stroke-width="1.4" stroke-linecap="round"/><line x1="45.9" y1="59.9" x2="53.9" y2="58.6" stroke="rgba(2,132,199,0.39)" stroke-width="2.3" stroke-linecap="round"/><line x1="61.9" y1="56.0" x2="73.9" y2="66.9" stroke="rgba(2,132,199,0.36)" stroke-width="1.4" stroke-linecap="round"/><line x1="25.0" y1="50.3" x2="32.7" y2="41.6" stroke="rgba(2,132,199,0.42)" stroke-width="1.9" stroke-linecap="round"/><line x1="50.4" y1="20.0" x2="62.4" y2="18.1" stroke="rgba(2,132,199,0.36)" stroke-width="1.3" stroke-linecap="round"/><line x1="54.0" y1="74.4" x2="66.4" y2="64.7" stroke="rgba(2,132,199,0.42)" stroke-width="1.3" stroke-linecap="round"/><line x1="39.2" y1="78.0" x2="47.0" y2="66.6" stroke="rgba(2,132,199,0.18)" stroke-width="2.1" stroke-linecap="round"/><line x1="75.2" y1="41.5" x2="84.9" y2="30.9" stroke="rgba(2,132,199,0.33)" stroke-width="1.9" stroke-linecap="round"/><line x1="41.0" y1="51.1" x2="51.3" y2="59.7" stroke="rgba(2,132,199,0.28)" stroke-width="2.4" stroke-linecap="round"/><line x1="16.8" y1="54.7" x2="34.1" y2="50.8" stroke="rgba(2,132,199,0.17)" stroke-width="2.5" stroke-linecap="round"/><line x1="28.4" y1="4.5" x2="38.4" y2="-0.6" stroke="rgba(2,132,199,0.13)" stroke-width="1.3" stroke-linecap="round"/><line x1="33.6" y1="55.9" x2="42.0" y2="53.2" stroke="rgba(2,132,199,0.21)" stroke-width="2.0" stroke-linecap="round"/><line x1="75.2" y1="42.2" x2="90.5" y2="31.9" stroke="rgba(2,132,199,0.27)" stroke-width="0.9" stroke-linecap="round"/><line x1="10.3" y1="62.1" x2="22.6" y2="71.4" stroke="rgba(2,132,199,0.30)" stroke-width="1.6" stroke-linecap="round"/><line x1="18.1" y1="77.1" x2="32.8" y2="72.4" stroke="rgba(2,132,199,0.43)" stroke-width="2.1" stroke-linecap="round"/><line x1="37.4" y1="23.5" x2="43.7" y2="24.2" stroke="rgba(2,132,199,0.44)" stroke-width="1.2" stroke-linecap="round"/><line x1="68.1" y1="21.4" x2="76.3" y2="19.2" stroke="rgba(2,132,199,0.28)" stroke-width="0.9" stroke-linecap="round"/><line x1="0.2" y1="57.7" x2="7.8" y2="54.0" stroke="rgba(2,132,199,0.23)" stroke-width="1.5" stroke-linecap="round"/><line x1="34.3" y1="51.0" x2="44.2" y2="54.4" stroke="rgba(2,132,199,0.47)" stroke-width="2.2" stroke-linecap="round"/><line x1="4.6" y1="66.2" x2="16.5" y2="79.8" stroke="rgba(2,132,199,0.17)" stroke-width="2.2" stroke-linecap="round"/><line x1="50.7" y1="1.2" x2="61.7" y2="-16.8" stroke="rgba(2,132,199,0.37)" stroke-width="1.0" stroke-linecap="round"/><line x1="8.1" y1="11.4" x2="23.4" y2="1.9" stroke="rgba(2,132,199,0.25)" stroke-width="0.8" stroke-linecap="round"/><line x1="72.3" y1="63.3" x2="87.7" y2="50.5" stroke="rgba(2,132,199,0.35)" stroke-width="2.1" stroke-linecap="round"/><line x1="53.5" y1="71.5" x2="69.2" y2="82.3" stroke="rgba(2,132,199,0.20)" stroke-width="1.9" stroke-linecap="round"/><line x1="42.5" y1="59.4" x2="62.2" y2="56.8" stroke="rgba(2,132,199,0.33)" stroke-width="1.0" stroke-linecap="round"/><line x1="18.7" y1="11.1" x2="23.8" y2="11.1" stroke="rgba(2,132,199,0.30)" stroke-width="0.8" stroke-linecap="round"/><line x1="39.3" y1="39.9" x2="58.8" y2="41.5" stroke="rgba(2,132,199,0.12)" stroke-width="2.2" stroke-linecap="round"/><line x1="37.4" y1="45.0" x2="55.4" y2="51.5" stroke="rgba(2,132,199,0.26)" stroke-width="1.3" stroke-linecap="round"/><line x1="76.8" y1="6.0" x2="91.7" y2="10.4" stroke="rgba(2,132,199,0.13)" stroke-width="1.7" stroke-linecap="round"/><line x1="54.6" y1="74.5" x2="74.9" y2="67.0" stroke="rgba(2,132,199,0.31)" stroke-width="1.5" stroke-linecap="round"/><line x1="71.8" y1="2.7" x2="85.5" y2="9.4" stroke="rgba(2,132,199,0.25)" stroke-width="2.2" stroke-linecap="round"/><line x1="29.3" y1="38.0" x2="47.1" y2="38.9" stroke="rgba(2,132,199,0.20)" stroke-width="1.4" stroke-linecap="round"/><line x1="33.8" y1="44.3" x2="41.0" y2="50.2" stroke="rgba(2,132,199,0.43)" stroke-width="1.3" stroke-linecap="round"/><line x1="40.3" y1="21.7" x2="61.8" y2="22.0" stroke="rgba(2,132,199,0.37)" stroke-width="2.1" stroke-linecap="round"/><line x1="26.5" y1="25.4" x2="39.8" y2="19.4" stroke="rgba(2,132,199,0.36)" stroke-width="2.1" stroke-linecap="round"/><line x1="3.2" y1="57.8" x2="12.8" y2="67.8" stroke="rgba(2,132,199,0.14)" stroke-width="1.1" stroke-linecap="round"/><line x1="0.5" y1="15.2" x2="10.0" y2="26.7" stroke="rgba(2,132,199,0.37)" stroke-width="2.1" stroke-linecap="round"/><line x1="72.8" y1="48.9" x2="87.6" y2="52.6" stroke="rgba(2,132,199,0.38)" stroke-width="1.7" stroke-linecap="round"/><line x1="54.5" y1="17.0" x2="66.0" y2="21.2" stroke="rgba(2,132,199,0.41)" stroke-width="0.7" stroke-linecap="round"/><line x1="14.5" y1="3.0" x2="31.7" y2="14.1" stroke="rgba(2,132,199,0.37)" stroke-width="1.2" stroke-linecap="round"/><line x1="65.8" y1="62.9" x2="74.4" y2="64.0" stroke="rgba(2,132,199,0.23)" stroke-width="1.3" stroke-linecap="round"/><line x1="25.5" y1="34.5" x2="45.4" y2="40.5" stroke="rgba(2,132,199,0.14)" stroke-width="1.6" stroke-linecap="round"/><line x1="3.2" y1="9.5" x2="14.6" y2="18.2" stroke="rgba(2,132,199,0.47)" stroke-width="1.4" stroke-linecap="round"/><line x1="1.1" y1="31.0" x2="21.6" y2="35.0" stroke="rgba(2,132,199,0.49)" stroke-width="1.5" stroke-linecap="round"/><line x1="33.0" y1="8.2" x2="40.5" y2="10.5" stroke="rgba(2,132,199,0.18)" stroke-width="0.5" stroke-linecap="round"/><line x1="0.4" y1="54.7" x2="15.4" y2="39.5" stroke="rgba(2,132,199,0.15)" stroke-width="2.2" stroke-linecap="round"/><line x1="10.3" y1="1.4" x2="17.8" y2="5.1" stroke="rgba(2,132,199,0.40)" stroke-width="0.9" stroke-linecap="round"/><line x1="4.0" y1="61.9" x2="21.5" y2="70.3" stroke="rgba(2,132,199,0.40)" stroke-width="0.7" stroke-linecap="round"/><line x1="50.3" y1="56.7" x2="71.0" y2="55.0" stroke="rgba(2,132,199,0.22)" stroke-width="2.4" stroke-linecap="round"/><line x1="57.4" y1="0.9" x2="65.6" y2="-12.4" stroke="rgba(2,132,199,0.43)" stroke-width="0.7" stroke-linecap="round"/><line x1="24.9" y1="58.4" x2="39.8" y2="45.8" stroke="rgba(2,132,199,0.30)" stroke-width="0.6" stroke-linecap="round"/><line x1="29.4" y1="46.0" x2="45.5" y2="43.9" stroke="rgba(2,132,199,0.18)" stroke-width="2.1" stroke-linecap="round"/><line x1="29.1" y1="51.6" x2="40.2" y2="54.7" stroke="rgba(2,132,199,0.27)" stroke-width="2.1" stroke-linecap="round"/><line x1="75.6" y1="62.8" x2="84.8" y2="64.1" stroke="rgba(2,132,199,0.14)" stroke-width="2.4" stroke-linecap="round"/><line x1="56.3" y1="66.2" x2="70.3" y2="61.1" stroke="rgba(2,132,199,0.49)" stroke-width="2.2" stroke-linecap="round"/><line x1="48.1" y1="24.7" x2="67.9" y2="21.7" stroke="rgba(2,132,199,0.26)" stroke-width="1.9" stroke-linecap="round"/><line x1="48.1" y1="71.7" x2="55.4" y2="77.2" stroke="rgba(2,132,199,0.12)" stroke-width="1.0" stroke-linecap="round"/><line x1="33.8" y1="46.9" x2="49.6" y2="59.2" stroke="rgba(2,132,199,0.14)" stroke-width="2.2" stroke-linecap="round"/></pattern></defs><rect width="400" height="250" fill="url(#p)"/><rect width="400" height="250" fill="url(#vig)"/></svg>